<?xml version="1.0" standalone="no"?>
<!DOCTYPE svg PUBLIC "-//W3C//DTD SVG 20010904//EN"
 "http://www.w3.org/TR/2001/REC-SVG-20010904/DTD/svg10.dtd">
<svg version="1.0" xmlns="http://www.w3.org/2000/svg"
 width="507.000000pt" height="507.000000pt" viewBox="0 0 507.000000 507.000000"
 preserveAspectRatio="xMidYMid meet">
<metadata>
Created by potrace 1.14, written by Peter Selinger 2001-2017
</metadata>
<g transform="translate(0.000000,507.000000) scale(0.100000,-0.100000)"
fill="#000000" stroke="none">
<path d="M1735 4427 c-10 -7 -25 -16 -31 -22 -7 -5 -42 -28 -78 -50 -36 -22
-66 -44 -66 -48 0 -5 -4 -5 -10 -2 -5 3 -10 2 -10 -2 0 -5 -20 -19 -45 -33
-25 -14 -45 -28 -45 -32 0 -5 -7 -8 -15 -8 -9 0 -18 -7 -21 -15 -4 -8 -11 -15
-18 -15 -11 0 -116 -67 -126 -80 -3 -4 -15 -10 -27 -14 -13 -4 -23 -12 -23
-17 0 -5 -7 -9 -15 -9 -9 0 -18 -6 -21 -14 -3 -8 -12 -12 -20 -9 -8 3 -14 0
-14 -6 0 -6 -11 -16 -25 -21 -14 -5 -25 -14 -25 -20 0 -5 -5 -10 -10 -10 -12
0 -94 -52 -98 -63 -2 -4 -7 -5 -12 -2 -4 2 -15 -4 -25 -15 -10 -11 -24 -20
-32 -20 -7 0 -13 -5 -13 -11 0 -5 -4 -8 -9 -5 -5 4 -11 2 -13 -2 -4 -10 -149
-106 -161 -107 -4 0 -11 -5 -15 -10 -10 -14 -89 -65 -102 -65 -5 0 -10 -4 -10
-9 0 -5 -9 -13 -20 -16 -11 -3 -26 -12 -32 -18 -7 -7 -54 -38 -105 -70 -50
-32 -94 -64 -97 -72 -3 -9 -9 -14 -13 -13 -10 3 -133 -123 -133 -136 0 -3 -11
-17 -25 -32 -13 -14 -22 -30 -20 -34 3 -4 -2 -10 -10 -14 -8 -3 -15 -10 -15
-17 0 -6 -9 -24 -21 -40 -11 -16 -18 -29 -15 -29 4 0 -5 -18 -20 -41 -14 -23
-20 -38 -12 -33 10 6 11 5 1 -7 -13 -17 -42 -112 -45 -151 -1 -16 -6 -28 -10
-28 -4 0 -8 -179 -8 -399 0 -333 2 -405 15 -435 8 -20 15 -38 15 -41 1 -23 14
-65 21 -65 4 0 6 -9 4 -20 -3 -13 0 -18 7 -14 7 5 9 1 5 -9 -3 -10 -2 -17 3
-17 4 0 11 -14 15 -30 4 -17 11 -30 16 -30 5 0 8 -3 8 -7 -3 -13 25 -73 33
-73 4 0 8 -6 8 -12 0 -14 28 -52 77 -104 17 -19 28 -34 25 -34 -4 0 8 -10 26
-21 17 -12 32 -25 32 -31 0 -5 5 -6 10 -3 6 3 10 1 10 -4 0 -6 4 -11 9 -11 14
0 114 -63 128 -80 7 -8 13 -11 13 -7 0 4 9 -1 20 -11 11 -10 33 -25 48 -33 15
-8 36 -22 46 -31 11 -10 25 -18 32 -18 7 0 18 -8 23 -17 6 -10 11 -14 11 -10
0 7 11 0 45 -31 8 -7 15 -10 15 -5 0 4 4 3 8 -3 8 -12 219 -154 228 -154 4 0
15 -10 25 -22 11 -11 19 -18 19 -14 0 4 18 -6 39 -23 21 -17 44 -31 50 -31 6
0 11 -5 11 -11 0 -5 4 -8 9 -5 5 4 11 2 13 -2 4 -12 95 -72 107 -72 6 0 11 -4
11 -8 0 -8 162 -117 168 -113 1 0 11 -7 21 -16 38 -34 51 -44 51 -36 0 4 4 3
8 -2 4 -6 34 -28 67 -50 33 -22 62 -43 63 -47 2 -5 10 -8 18 -8 8 0 14 -4 14
-10 0 -5 5 -10 11 -10 6 0 32 -15 58 -34 46 -33 46 -33 161 -33 66 0 127 5
145 12 16 7 39 16 50 20 11 5 23 7 28 7 4 -1 7 3 7 8 0 6 7 10 15 10 8 0 15 5
15 10 0 6 6 10 14 10 8 0 17 7 20 16 3 8 9 14 13 11 5 -2 18 7 30 20 12 13 19
23 16 23 -3 0 5 10 19 23 14 12 41 46 58 75 l33 54 1 321 c1 329 -3 382 -36
429 -10 14 -18 29 -18 32 0 13 -125 146 -138 146 -4 0 -25 14 -46 30 -22 17
-46 30 -53 30 -7 0 -13 5 -13 10 0 6 -5 10 -10 10 -12 0 -71 40 -82 55 -5 7
-8 7 -8 0 0 -5 -5 -2 -11 8 -5 9 -14 17 -20 17 -8 0 -64 35 -79 50 -3 3 -17
11 -32 19 -16 8 -28 18 -28 23 0 4 -6 8 -12 8 -7 0 -24 9 -38 20 -44 34 -160
110 -160 104 0 -3 -7 1 -15 10 -24 24 -241 166 -254 166 -6 0 -11 4 -11 8 0
10 -132 97 -142 94 -20 -5 7 27 35 41 30 16 128 83 154 106 7 6 16 11 21 11 5
0 17 9 27 20 10 11 22 17 26 14 5 -3 9 -1 9 5 0 5 27 26 60 47 33 20 60 41 60
47 0 6 3 8 6 4 6 -6 17 1 55 36 10 9 21 16 24 15 5 -3 49 28 72 50 7 7 13 10
13 7 0 -6 21 9 78 56 6 5 12 7 12 3 0 -4 10 2 23 13 12 11 58 44 102 74 44 30
82 57 83 62 2 4 10 7 18 7 8 0 14 5 14 10 0 6 7 10 15 10 9 0 18 6 21 14 3 8
19 19 35 25 16 5 29 15 29 20 0 6 7 11 15 11 8 0 15 5 15 12 0 6 3 9 6 5 11
-11 98 71 136 130 30 45 57 105 67 143 11 48 7 606 -5 621 -6 8 -17 32 -24 54
-7 22 -19 44 -27 48 -7 5 -11 12 -8 17 8 13 -116 135 -162 159 -38 19 -58 21
-215 20 -115 0 -180 -4 -193 -12z"/>
<path d="M3010 4433 c-8 -3 -26 -10 -40 -16 -14 -6 -29 -9 -33 -8 -5 1 -6 -3
-3 -8 4 -5 -3 -12 -14 -16 -11 -3 -20 -11 -20 -17 0 -6 -3 -9 -6 -5 -7 7 -74
-60 -74 -74 0 -6 -4 -7 -10 -4 -5 3 -10 -1 -10 -9 0 -9 -3 -16 -8 -16 -4 0
-18 -20 -32 -45 -14 -25 -27 -45 -30 -45 -3 0 -5 -150 -4 -334 1 -325 9 -426
35 -426 5 0 9 -6 9 -12 0 -12 14 -31 73 -98 12 -14 40 -39 62 -55 22 -17 49
-38 59 -47 11 -10 24 -18 29 -18 6 0 33 -15 61 -34 28 -19 55 -33 59 -32 5 0
13 -7 18 -16 6 -10 15 -18 21 -18 5 0 27 -13 48 -30 21 -16 42 -30 47 -30 4 0
21 -11 36 -26 15 -14 32 -22 39 -18 7 4 8 3 4 -4 -4 -7 -1 -12 7 -12 8 0 22
-9 32 -20 10 -11 22 -20 27 -20 9 0 62 -36 86 -57 7 -7 17 -13 22 -13 5 0 15
-6 22 -13 7 -7 32 -24 56 -37 23 -13 42 -27 42 -32 0 -4 5 -8 10 -8 12 0 73
-41 78 -52 2 -5 9 -8 16 -8 7 0 22 -9 34 -20 12 -12 22 -17 22 -13 0 4 4 3 8
-3 4 -6 34 -28 67 -50 33 -21 64 -42 70 -46 8 -6 -29 -50 -45 -54 -19 -6 -80
-48 -80 -56 0 -5 -4 -7 -8 -4 -5 3 -18 -3 -28 -12 -10 -10 -27 -21 -36 -25
-10 -3 -18 -11 -18 -17 0 -5 -7 -10 -15 -10 -8 0 -15 -4 -15 -10 0 -5 -5 -10
-10 -10 -9 0 -65 -35 -80 -50 -10 -10 -101 -70 -106 -70 -3 0 -17 -11 -32 -25
-15 -14 -32 -25 -39 -25 -7 0 -13 -4 -13 -10 0 -5 -7 -10 -15 -10 -9 0 -18 -7
-21 -15 -4 -8 -10 -12 -15 -9 -5 3 -12 -2 -15 -10 -3 -9 -12 -16 -20 -16 -8 0
-14 -5 -14 -10 0 -6 -4 -9 -9 -8 -5 2 -23 -9 -40 -24 -17 -16 -35 -28 -41 -28
-5 0 -10 -4 -10 -10 0 -5 -4 -10 -10 -10 -14 0 -120 -73 -120 -83 0 -4 -4 -5
-10 -2 -5 3 -10 1 -10 -4 0 -6 -7 -11 -15 -11 -8 0 -15 -4 -15 -10 0 -5 -5
-10 -11 -10 -6 0 -29 -15 -52 -34 -23 -19 -48 -36 -56 -38 -13 -3 -97 -82
-127 -121 -12 -15 -48 -78 -49 -87 0 -3 -3 -10 -7 -16 -18 -27 -22 -89 -25
-352 -2 -237 0 -288 12 -313 9 -16 15 -30 15 -31 1 -17 14 -48 21 -48 5 0 8
-3 7 -7 -2 -12 14 -45 33 -68 10 -11 27 -31 38 -44 12 -13 21 -28 21 -33 0 -5
4 -7 9 -4 5 3 14 -1 21 -9 19 -22 96 -65 119 -65 12 0 21 -4 21 -8 0 -12 198
-12 255 0 28 6 61 19 74 29 13 10 28 16 34 12 5 -3 7 -1 3 5 -3 6 3 13 14 17
11 3 20 11 20 17 0 6 3 8 7 5 3 -4 21 4 39 18 18 14 37 25 42 25 6 0 12 3 14
8 2 4 28 23 58 42 30 19 61 40 68 47 7 7 18 13 23 13 6 0 24 11 42 26 18 14
35 25 40 24 4 0 17 9 29 20 12 11 28 20 35 20 7 0 13 5 13 10 0 6 6 10 14 10
8 0 17 7 20 16 3 8 10 12 16 9 6 -3 13 1 16 9 3 9 10 13 15 10 5 -3 9 0 9 5 0
6 7 11 15 11 8 0 15 5 15 10 0 6 5 10 10 10 6 0 38 19 73 43 34 24 70 46 80
50 9 3 17 11 17 17 0 6 4 9 9 6 4 -3 16 3 26 14 10 11 22 17 26 14 5 -3 9 0 9
5 0 6 7 11 16 11 9 0 12 5 8 11 -4 7 -1 10 7 7 7 -2 25 6 38 18 14 13 28 21
33 18 4 -3 8 0 8 6 0 6 11 15 25 20 14 5 25 14 25 20 0 5 9 10 20 10 11 0 20
4 20 8 0 5 12 15 28 23 15 8 32 19 39 24 28 23 40 30 53 33 8 2 17 7 20 11 3
5 25 21 50 36 25 15 47 31 50 34 3 3 21 15 40 25 45 25 224 205 225 227 0 3 7
12 15 21 9 8 31 46 50 84 19 38 38 70 42 72 5 2 8 12 8 22 0 9 7 34 15 54 9
21 18 56 21 79 3 23 8 49 11 57 9 22 10 811 1 816 -5 3 -8 16 -8 28 0 23 -21
84 -41 120 -6 10 -6 15 -1 12 17 -10 -95 203 -113 216 -5 4 -6 8 -1 8 20 0
-156 161 -194 177 -22 10 -40 21 -40 25 0 5 -5 8 -10 8 -6 0 -20 9 -32 20 -12
11 -28 20 -35 20 -7 0 -13 5 -13 10 0 6 -7 10 -15 10 -8 0 -15 5 -15 10 0 6
-7 10 -15 10 -8 0 -15 3 -15 8 0 7 -55 42 -66 41 -3 0 -14 9 -23 20 -10 11
-21 18 -25 14 -3 -3 -6 -1 -6 5 0 7 -7 12 -15 12 -8 0 -15 4 -15 8 0 5 -16 17
-35 28 -19 10 -35 22 -35 26 0 5 -5 8 -11 8 -6 0 -40 20 -75 45 -34 25 -65 45
-69 45 -3 0 -11 4 -18 10 -60 49 -77 61 -77 53 -1 -4 -8 1 -18 12 -9 11 -34
29 -54 40 -21 11 -38 23 -38 28 0 4 -4 6 -9 3 -5 -4 -11 -2 -13 2 -1 4 -25 23
-53 42 -27 18 -53 38 -56 43 -3 5 -8 7 -10 6 -5 -4 -102 61 -111 75 -4 6 -8 7
-8 3 0 -8 -70 40 -82 58 -5 7 -8 7 -8 0 0 -7 -3 -7 -8 0 -12 16 -148 105 -161
105 -7 0 -9 5 -6 10 3 6 -1 10 -9 10 -9 0 -16 3 -16 8 0 22 -62 32 -204 31
-83 0 -158 -3 -166 -6z"/>
</g>
</svg>
